<?xml version="1.0" ?><!DOCTYPE svg  PUBLIC '-//W3C//DTD SVG 1.1//EN'  'http://www.w3.org/Graphics/SVG/1.1/DTD/svg11.dtd'><svg enable-background="new 0 0 128 128" id="Слой_1" version="1.1" viewBox="0 0 128 128" xml:space="preserve" xmlns="http://www.w3.org/2000/svg" xmlns:xlink="http://www.w3.org/1999/xlink"><g><g><g><g><path d="M15.743,94.755c-0.341,0-0.673-0.174-0.86-0.489c-0.388-0.652-0.593-1.399-0.593-2.161V32.112      c0-2.332,1.897-4.229,4.229-4.229h90.96c2.332,0,4.229,1.897,4.229,4.229v59.993c0,0.753-0.201,1.494-0.582,2.142      c-0.28,0.476-0.892,0.635-1.369,0.355c-0.476-0.28-0.635-0.893-0.355-1.369c0.2-0.34,0.306-0.73,0.306-1.128V32.112      c0-1.229-1-2.229-2.229-2.229H18.52c-1.229,0-2.229,1-2.229,2.229v59.993c0,0.402,0.108,0.795,0.312,1.138      c0.282,0.475,0.126,1.088-0.348,1.371C16.093,94.709,15.917,94.755,15.743,94.755z" fill="#323638"/></g><g><path d="M107.308,89.464H20.53c-0.276,0-0.5-0.224-0.5-0.5v-55c0-0.276,0.224-0.5,0.5-0.5h86.778      c0.276,0,0.5,0.224,0.5,0.5v55C107.808,89.24,107.584,89.464,107.308,89.464z M21.03,88.464h85.778v-54H21.03V88.464z" fill="#323638"/></g></g><g><g><g><path d="M117.548,100.117H10.236c-4.951,0-6.811-2.068-7.006-2.304C3.081,97.633,3,97.407,3,97.174v-3.109       c0-0.552,0.448-1,1-1s1,0.448,1,1v2.672c0.548,0.426,2.121,1.38,5.237,1.38h107.312c3.123,0,4.824-0.947,5.452-1.393v-2.135       c0-0.552,0.448-1,1-1s1,0.448,1,1v2.606c0,0.256-0.099,0.503-0.275,0.689C124.637,97.976,122.543,100.117,117.548,100.117z" fill="#323638"/></g><g><path d="M4,97.174c-0.552,0-1-0.448-1-1V93.98c0-0.623,0.507-1.129,1.129-1.129h119.742       c0.623,0,1.129,0.506,1.129,1.129v1.757c0,0.552-0.448,1-1,1s-1-0.448-1-1v-0.886H5v1.322C5,96.726,4.552,97.174,4,97.174z" fill="#323638"/></g><g><path d="M70.33,96.161H57.226c-1.07,0-2.633-0.543-2.751-1.707c-0.005-0.027-0.007-0.055-0.007-0.083v-0.081       c0-0.276,0.224-0.5,0.5-0.5s0.5,0.224,0.5,0.5c0,0.471,0.983,0.871,1.758,0.871H70.33c0.456,0,1.368-0.387,1.417-0.917       c0.026-0.275,0.271-0.479,0.544-0.452c0.275,0.026,0.477,0.27,0.452,0.544C72.63,95.552,71.135,96.161,70.33,96.161z" fill="#323638"/></g></g></g></g></g></svg>