<?xml version="1.0" ?><!DOCTYPE svg  PUBLIC '-//W3C//DTD SVG 1.1//EN'  'http://www.w3.org/Graphics/SVG/1.1/DTD/svg11.dtd'><svg enable-background="new 0 0 128 128" id="Слой_1" version="1.1" viewBox="0 0 128 128" xml:space="preserve" xmlns="http://www.w3.org/2000/svg" xmlns:xlink="http://www.w3.org/1999/xlink"><g><g><g><path d="M71.589,75.514" fill="none" stroke="#323638" stroke-linecap="round" stroke-linejoin="round" stroke-miterlimit="10"/></g><g><path d="M65.703,77.768c-0.194,0-0.388-0.01-0.588-0.024c-0.181-0.013-0.366-0.026-0.564-0.026h-1.214     c-0.198,0-0.384,0.014-0.565,0.026c-1.917,0.138-3.351-0.093-8.396-6.216c-0.29-0.354-0.534-0.743-0.726-1.158l-3.794-8.206     c-2.161,0.182-4.325-1.841-5.318-5.012c-0.518-1.651-0.653-3.451-0.371-4.94c0.32-1.692,1.124-2.821,2.263-3.179     c0.029-0.009,0.13-0.032,0.161-0.038c0.398-0.071,0.808,0.18,0.893,0.577c0.084,0.396-0.138,0.783-0.531,0.879     c-0.015,0.003-0.078,0.017-0.093,0.02c-0.55,0.172-1.013,0.929-1.219,2.02c-0.237,1.254-0.117,2.79,0.329,4.212     c0.914,2.916,2.837,4.298,4.089,3.904c0.362-0.112,0.756,0.056,0.914,0.397l4.039,8.735c0.139,0.3,0.314,0.581,0.523,0.835     c4.807,5.836,5.885,5.76,7.131,5.673c0.215-0.015,0.436-0.03,0.671-0.03h1.214c0.235,0,0.455,0.015,0.67,0.03     c1.254,0.086,2.324,0.163,7.132-5.674c0.207-0.25,0.383-0.531,0.524-0.835l4.093-8.852c0.166-0.357,0.582-0.524,0.946-0.387     c0.01,0.004,0.084,0.036,0.094,0.04c0.604,0.185,1.35-0.048,2.069-0.667c0.843-0.723,1.541-1.885,1.968-3.271     c0.925-3.008,0.239-5.869-0.944-6.233c-0.396-0.122-0.618-0.542-0.496-0.937c0.121-0.396,0.542-0.618,0.938-0.497     c2.421,0.744,2.956,4.793,1.937,8.107c-0.509,1.654-1.369,3.063-2.425,3.969c-0.95,0.817-1.99,1.187-2.983,1.065l-3.835,8.294     c-0.195,0.42-0.439,0.809-0.727,1.158C68.991,77.015,67.371,77.768,65.703,77.768z" fill="#323638"/></g><g><path d="M50.916,56.328c-0.243,0-0.456-0.178-0.493-0.426L49,46.445c-0.129-0.363-0.73-2.286,0.277-4.051     c0.805-1.408,2.395-2.312,4.724-2.684c3.737-0.597,10.597,2.223,16.107,4.49c3.199,1.316,7.178,2.953,7.814,2.59     c0.064-0.263,0.3-0.396,0.57-0.337c0.265,0.059,0.413,0.349,0.361,0.615l-1.53,7.862c-0.054,0.271-0.322,0.447-0.587,0.395     c-0.271-0.053-0.448-0.315-0.396-0.586l1.348-6.92c-0.002,0-0.004,0-0.006,0c-1.336,0-3.852-1.004-7.956-2.693     c-5.393-2.219-12.104-4.981-15.568-4.427c-2.016,0.323-3.366,1.061-4.014,2.193c-0.859,1.505-0.199,3.23-0.192,3.247     c0.014,0.035,0.023,0.071,0.028,0.108l1.43,9.508c0.041,0.273-0.146,0.528-0.42,0.569C50.966,56.326,50.941,56.328,50.916,56.328     z" fill="#323638"/></g><g><path d="M81.716,50.589c-0.037,0-0.074-0.003-0.111-0.008c-0.409-0.061-0.692-0.442-0.632-0.852     c0.016-0.102,1.442-10.231-4.044-15.94c-3.026-3.149-7.63-4.416-13.688-3.762c-0.07,0.006-5.773,0.535-8.721,2.397     c-0.233,0.147-0.492,0.302-0.771,0.467c-3.196,1.904-8.546,5.089-6.509,16.794c0.07,0.408-0.202,0.796-0.61,0.867     c-0.407,0.072-0.797-0.202-0.868-0.61c-2.213-12.722,3.923-16.376,7.22-18.34c0.266-0.159,0.514-0.306,0.737-0.447     c3.256-2.057,9.127-2.6,9.375-2.622c6.531-0.704,11.557,0.716,14.922,4.221c5.996,6.247,4.507,16.751,4.441,17.195     C82.401,50.322,82.081,50.589,81.716,50.589z" fill="#323638"/></g><g><path d="M96.975,95.371c-0.414,0-0.75-0.336-0.75-0.75c0-0.915-0.322-1.981-0.638-2.904     c-1.502-4.349-6.03-5.111-6.076-5.118c-0.056-0.009-0.11-0.024-0.163-0.045l-15.985-6.441c-0.384-0.155-0.57-0.592-0.415-0.976     c0.154-0.385,0.594-0.57,0.976-0.416l15.913,6.412c0.741,0.14,5.482,1.212,7.17,6.097c0.355,1.042,0.719,2.257,0.719,3.391     C97.725,95.035,97.389,95.371,96.975,95.371z" fill="#323638"/></g><g><path d="M31.066,94.542c-0.037,0-0.075-0.003-0.113-0.008c-0.41-0.062-0.691-0.445-0.629-0.854     c0.107-0.713,0.247-1.131,0.424-1.66c0.072-0.217,0.153-0.46,0.245-0.763c1.693-4.9,6.42-5.98,7.176-6.123l15.656-6.513     c0.378-0.158,0.82,0.021,0.98,0.404c0.159,0.382-0.021,0.821-0.404,0.98l-15.732,6.544c-0.054,0.022-0.112,0.039-0.169,0.048     c-0.187,0.03-4.585,0.794-6.08,5.121c-0.088,0.292-0.173,0.547-0.249,0.774c-0.166,0.497-0.275,0.825-0.364,1.411     C31.751,94.276,31.431,94.542,31.066,94.542z" fill="#323638"/></g><g><g><path d="M68.388,108.253c-0.243,0-0.457-0.179-0.494-0.427l-2.727-18.476c-1.009-0.83-1.92-0.222-2.237,0.046      l-0.256,1.529l-2.115,16.879c-0.034,0.275-0.288,0.463-0.559,0.434c-0.273-0.034-0.468-0.284-0.434-0.558l2.118-16.9      l0.287-1.719c0.017-0.1,0.063-0.193,0.134-0.266c0.65-0.67,2.294-1.546,3.871-0.065c0.083,0.078,0.137,0.18,0.153,0.292      l2.754,18.656c0.04,0.273-0.148,0.527-0.422,0.568C68.437,108.251,68.412,108.253,68.388,108.253z" fill="#323638"/></g><g><path d="M60.828,81.994" fill="none" stroke="#323638" stroke-linecap="round" stroke-linejoin="round" stroke-miterlimit="10"/></g></g><g><g><path d="M61.043,88.298c-0.149,0-0.293-0.067-0.389-0.185l-6.854-8.446c-0.129-0.159-0.147-0.381-0.047-0.56      l2.158-3.838c0.109-0.193,0.335-0.292,0.55-0.242c0.217,0.051,0.374,0.239,0.385,0.462c0.112,2.243,1.869,3.408,1.944,3.457      c2.122,1.376,5.448,2.566,5.482,2.578c0.137,0.049,0.245,0.154,0.298,0.29s0.044,0.287-0.023,0.415l-3.062,5.803      c-0.078,0.148-0.227,0.248-0.394,0.264C61.075,88.297,61.06,88.298,61.043,88.298z M54.792,79.3l6.162,7.595l2.443-4.63      c-1.058-0.404-3.436-1.369-5.151-2.48c-0.645-0.418-1.65-1.406-2.131-2.837L54.792,79.3z" fill="#323638"/></g><g><path d="M67.146,88.385c-0.016,0-0.032-0.001-0.048-0.002c-0.169-0.016-0.318-0.117-0.396-0.269l-3.033-5.891      c-0.066-0.128-0.073-0.279-0.021-0.413c0.053-0.134,0.161-0.239,0.297-0.287c0.034-0.012,3.362-1.203,5.484-2.578      c0.398-0.259,1.56-1.448,1.66-3.456c0.011-0.222,0.167-0.41,0.383-0.461c0.22-0.052,0.441,0.046,0.551,0.239l2.222,3.904      c0.101,0.176,0.084,0.396-0.042,0.556l-6.664,8.467C67.444,88.315,67.299,88.385,67.146,88.385z M64.815,82.267l2.419,4.697      l5.976-7.591l-1.36-2.391c-0.438,1.507-1.349,2.46-1.877,2.802C68.255,80.898,65.871,81.864,64.815,82.267z" fill="#323638"/></g></g></g><g><path d="M64,110c-25.364,0-46-20.636-46-46s20.636-46,46-46s46,20.636,46,46S89.364,110,64,110z M64,20    c-24.262,0-44,19.738-44,44s19.738,44,44,44s44-19.738,44-44S88.262,20,64,20z" fill="#323638"/></g></g></svg>