<?xml version="1.0" ?><!DOCTYPE svg  PUBLIC '-//W3C//DTD SVG 1.1//EN'  'http://www.w3.org/Graphics/SVG/1.1/DTD/svg11.dtd'><svg enable-background="new 0 0 128 128" id="Слой_1" version="1.1" viewBox="0 0 128 128" xml:space="preserve" xmlns="http://www.w3.org/2000/svg" xmlns:xlink="http://www.w3.org/1999/xlink"><g><g><g><path d="M107,101.5H21c-1.654,0-3-1.346-3-3v-69c0-1.654,1.346-3,3-3h86c1.654,0,3,1.346,3,3v69     C110,100.154,108.654,101.5,107,101.5z M21,28.5c-0.551,0-1,0.448-1,1v69c0,0.552,0.449,1,1,1h86c0.551,0,1-0.448,1-1v-69     c0-0.552-0.449-1-1-1H21z" fill="#323638"/></g><g><path d="M109,39.725H19c-0.276,0-0.5-0.224-0.5-0.5s0.224-0.5,0.5-0.5h90c0.276,0,0.5,0.224,0.5,0.5     S109.276,39.725,109,39.725z" fill="#323638"/></g><g><circle cx="24.692" cy="33.53" fill="#323638" r="1.902"/></g><g><circle cx="30.098" cy="33.53" fill="#323638" r="1.902"/></g><g><circle cx="35.504" cy="33.53" fill="#323638" r="1.902"/></g></g><g><g><g><path d="M31.496,60.966c0.278,0,0.557,0.222,0.62,0.493l1.823,7.855c0.063,0.271,0.175,0.273,0.25,0.005      l2.188-7.866c0.075-0.268,0.363-0.487,0.641-0.487h0.582c0.278,0,0.567,0.219,0.641,0.487l2.194,7.883      c0.075,0.268,0.187,0.265,0.25-0.005l1.823-7.872c0.063-0.271,0.342-0.493,0.62-0.493h0.604c0.278,0,0.449,0.22,0.38,0.49      L41.503,71.6c-0.069,0.269-0.353,0.49-0.631,0.49h-0.536c-0.278,0-0.567-0.219-0.641-0.487l-2.24-8.047      c-0.075-0.268-0.197-0.268-0.272,0l-2.253,8.047c-0.075,0.268-0.364,0.487-0.642,0.487h-0.537c-0.278,0-0.562-0.22-0.631-0.49      l-2.594-10.144c-0.069-0.269,0.102-0.49,0.38-0.49H31.496z" fill="#313638"/></g></g><g><g><path d="M45.813,60.966c0.278,0,0.557,0.222,0.62,0.493l1.823,7.855c0.063,0.271,0.175,0.273,0.25,0.005      l2.188-7.866c0.075-0.268,0.363-0.487,0.641-0.487h0.582c0.278,0,0.567,0.219,0.641,0.487l2.194,7.883      c0.075,0.268,0.187,0.265,0.25-0.005l1.823-7.872c0.063-0.271,0.342-0.493,0.62-0.493h0.604c0.278,0,0.449,0.22,0.38,0.49      L55.82,71.6c-0.069,0.269-0.353,0.49-0.631,0.49h-0.536c-0.278,0-0.567-0.219-0.641-0.487l-2.24-8.047      c-0.075-0.268-0.197-0.268-0.272,0l-2.253,8.047c-0.075,0.268-0.364,0.487-0.642,0.487h-0.537c-0.278,0-0.562-0.22-0.631-0.49      l-2.594-10.144c-0.069-0.269,0.102-0.49,0.38-0.49H45.813z" fill="#313638"/></g></g><g><g><path d="M60.129,60.966c0.278,0,0.557,0.222,0.62,0.493l1.823,7.855c0.063,0.271,0.175,0.273,0.25,0.005      l2.188-7.866c0.075-0.268,0.363-0.487,0.641-0.487h0.582c0.278,0,0.567,0.219,0.641,0.487l2.194,7.883      c0.075,0.268,0.187,0.265,0.25-0.005l1.823-7.872c0.063-0.271,0.342-0.493,0.62-0.493h0.604c0.278,0,0.449,0.22,0.38,0.49      L70.137,71.6c-0.069,0.269-0.353,0.49-0.631,0.49h-0.536c-0.278,0-0.567-0.219-0.641-0.487l-2.24-8.047      c-0.075-0.268-0.197-0.268-0.272,0l-2.253,8.047c-0.075,0.268-0.364,0.487-0.642,0.487h-0.537c-0.278,0-0.562-0.22-0.631-0.49      L59.16,61.456c-0.069-0.269,0.102-0.49,0.38-0.49H60.129z" fill="#313638"/></g></g><g><g><path d="M73.541,70.475c0-0.278,0.228-0.506,0.506-0.506h0.537c0.278,0,0.506,0.228,0.506,0.506v0.603      c0,0.278-0.228,0.506-0.506,0.506h-0.537c-0.278,0-0.506-0.228-0.506-0.506V70.475z" fill="#313638"/></g></g><g><g><path d="M79.764,61.449c0.082-0.266,0.377-0.483,0.655-0.483h0.115c0.278,0,0.438,0.217,0.356,0.483      l-3.152,10.158c-0.082,0.266-0.377,0.483-0.655,0.483h-0.115c-0.278,0-0.438-0.217-0.356-0.483L79.764,61.449z" fill="#313638"/></g></g><g><g><path d="M83.979,61.449c0.082-0.266,0.377-0.483,0.655-0.483h0.115c0.278,0,0.438,0.217,0.356,0.483      l-3.152,10.158c-0.082,0.266-0.377,0.483-0.655,0.483h-0.115c-0.278,0-0.438-0.217-0.356-0.483L83.979,61.449z" fill="#313638"/></g></g></g><g><path d="M89.281,75.63c-0.279,0-0.506-0.227-0.506-0.506V55.91c0-0.279,0.227-0.506,0.506-0.506    s0.506,0.227,0.506,0.506v19.214C89.787,75.403,89.56,75.63,89.281,75.63z" fill="#323638"/></g></g></svg>